<svg width="93" height="93" viewBox="0 0 93 93" fill="none" xmlns="http://www.w3.org/2000/svg">
<g clip-path="url(#clip0_112_146)">
<rect y="0.0690918" width="92.2581" height="92.2581" rx="20.4174" fill="white"/>
<rect y="0.0690918" width="92.2581" height="92.2581" rx="20.4171" fill="white"/>
<rect y="23.1337" width="92.2581" height="5.12545" fill="url(#paint0_linear_112_146)"/>
<rect y="0.0690918" width="92.2581" height="23.0645" fill="url(#paint1_linear_112_146)"/>
<path d="M0.640681 29.0279C0.403554 29.0279 0.183195 28.9564 0 28.8337V26.9156C0.183195 26.793 0.403554 26.7214 0.640681 26.7214C1.27761 26.7214 1.79391 27.2378 1.79391 27.8747C1.79391 28.5116 1.27761 29.0279 0.640681 29.0279Z" fill="#C7C6CA"/>
<path d="M4.98192 29.0279C5.61885 29.0279 6.13515 28.5116 6.13515 27.8747C6.13515 27.2378 5.61885 26.7214 4.98192 26.7214C4.34499 26.7214 3.82869 27.2378 3.82869 27.8747C3.82869 28.5116 4.34499 29.0279 4.98192 29.0279Z" fill="#C7C6CA"/>
<path d="M10.4764 27.8747C10.4764 28.5116 9.96009 29.0279 9.32316 29.0279C8.68623 29.0279 8.16993 28.5116 8.16993 27.8747C8.16993 27.2378 8.68623 26.7214 9.32316 26.7214C9.96009 26.7214 10.4764 27.2378 10.4764 27.8747Z" fill="#C7C6CA"/>
<path d="M13.6644 29.0279C14.3013 29.0279 14.8176 28.5116 14.8176 27.8747C14.8176 27.2378 14.3013 26.7214 13.6644 26.7214C13.0275 26.7214 12.5112 27.2378 12.5112 27.8747C12.5112 28.5116 13.0275 29.0279 13.6644 29.0279Z" fill="#C7C6CA"/>
<path d="M19.1589 27.8747C19.1589 28.5116 18.6426 29.0279 18.0056 29.0279C17.3687 29.0279 16.8524 28.5116 16.8524 27.8747C16.8524 27.2378 17.3687 26.7214 18.0056 26.7214C18.6426 26.7214 19.1589 27.2378 19.1589 27.8747Z" fill="#C7C6CA"/>
<path d="M22.347 29.0279C22.9839 29.0279 23.5002 28.5116 23.5002 27.8747C23.5002 27.2378 22.9839 26.7214 22.347 26.7214C21.7101 26.7214 21.1938 27.2378 21.1938 27.8747C21.1938 28.5116 21.7101 29.0279 22.347 29.0279Z" fill="#C7C6CA"/>
<path d="M27.8416 27.8747C27.8416 28.5116 27.3253 29.0279 26.6884 29.0279C26.0514 29.0279 25.5351 28.5116 25.5351 27.8747C25.5351 27.2378 26.0514 26.7214 26.6884 26.7214C27.3253 26.7214 27.8416 27.2378 27.8416 27.8747Z" fill="#C7C6CA"/>
<path d="M31.0297 29.0279C31.6667 29.0279 32.183 28.5116 32.183 27.8747C32.183 27.2378 31.6667 26.7214 31.0297 26.7214C30.3928 26.7214 29.8765 27.2378 29.8765 27.8747C29.8765 28.5116 30.3928 29.0279 31.0297 29.0279Z" fill="#C7C6CA"/>
<path d="M36.5243 27.8747C36.5243 28.5116 36.008 29.0279 35.3711 29.0279C34.7342 29.0279 34.2179 28.5116 34.2179 27.8747C34.2179 27.2378 34.7342 26.7214 35.3711 26.7214C36.008 26.7214 36.5243 27.2378 36.5243 27.8747Z" fill="#C7C6CA"/>
<path d="M39.7125 29.0279C40.3494 29.0279 40.8657 28.5116 40.8657 27.8747C40.8657 27.2378 40.3494 26.7214 39.7125 26.7214C39.0755 26.7214 38.5592 27.2378 38.5592 27.8747C38.5592 28.5116 39.0755 29.0279 39.7125 29.0279Z" fill="#C7C6CA"/>
<path d="M45.2071 27.8747C45.2071 28.5116 44.6908 29.0279 44.0538 29.0279C43.4169 29.0279 42.9006 28.5116 42.9006 27.8747C42.9006 27.2378 43.4169 26.7214 44.0538 26.7214C44.6908 26.7214 45.2071 27.2378 45.2071 27.8747Z" fill="#C7C6CA"/>
<path d="M48.3952 29.0279C49.0321 29.0279 49.5484 28.5116 49.5484 27.8747C49.5484 27.2378 49.0321 26.7214 48.3952 26.7214C47.7583 26.7214 47.242 27.2378 47.242 27.8747C47.242 28.5116 47.7583 29.0279 48.3952 29.0279Z" fill="#C7C6CA"/>
<path d="M53.8898 27.8747C53.8898 28.5116 53.3735 29.0279 52.7366 29.0279C52.0996 29.0279 51.5833 28.5116 51.5833 27.8747C51.5833 27.2378 52.0996 26.7214 52.7366 26.7214C53.3735 26.7214 53.8898 27.2378 53.8898 27.8747Z" fill="#C7C6CA"/>
<path d="M57.0779 29.0279C57.7148 29.0279 58.2311 28.5116 58.2311 27.8747C58.2311 27.2378 57.7148 26.7214 57.0779 26.7214C56.441 26.7214 55.9247 27.2378 55.9247 27.8747C55.9247 28.5116 56.441 29.0279 57.0779 29.0279Z" fill="#C7C6CA"/>
<path d="M62.5725 27.8747C62.5725 28.5116 62.0562 29.0279 61.4193 29.0279C60.7824 29.0279 60.2661 28.5116 60.2661 27.8747C60.2661 27.2378 60.7824 26.7214 61.4193 26.7214C62.0562 26.7214 62.5725 27.2378 62.5725 27.8747Z" fill="#C7C6CA"/>
<path d="M65.7607 29.0279C66.3976 29.0279 66.9139 28.5116 66.9139 27.8747C66.9139 27.2378 66.3976 26.7214 65.7607 26.7214C65.1237 26.7214 64.6074 27.2378 64.6074 27.8747C64.6074 28.5116 65.1237 29.0279 65.7607 29.0279Z" fill="#C7C6CA"/>
<path d="M71.2552 27.8747C71.2552 28.5116 70.7389 29.0279 70.102 29.0279C69.4651 29.0279 68.9488 28.5116 68.9488 27.8747C68.9488 27.2378 69.4651 26.7214 70.102 26.7214C70.7389 26.7214 71.2552 27.2378 71.2552 27.8747Z" fill="#C7C6CA"/>
<path d="M74.4434 29.0279C75.0803 29.0279 75.5966 28.5116 75.5966 27.8747C75.5966 27.2378 75.0803 26.7214 74.4434 26.7214C73.8065 26.7214 73.2902 27.2378 73.2902 27.8747C73.2902 28.5116 73.8065 29.0279 74.4434 29.0279Z" fill="#C7C6CA"/>
<path d="M79.938 27.8747C79.938 28.5116 79.4217 29.0279 78.7847 29.0279C78.1478 29.0279 77.6315 28.5116 77.6315 27.8747C77.6315 27.2378 78.1478 26.7214 78.7847 26.7214C79.4217 26.7214 79.938 27.2378 79.938 27.8747Z" fill="#C7C6CA"/>
<path d="M83.1261 29.0279C83.763 29.0279 84.2793 28.5116 84.2793 27.8747C84.2793 27.2378 83.763 26.7214 83.1261 26.7214C82.4892 26.7214 81.9729 27.2378 81.9729 27.8747C81.9729 28.5116 82.4892 29.0279 83.1261 29.0279Z" fill="#C7C6CA"/>
<path d="M88.6207 27.8747C88.6207 28.5116 88.1044 29.0279 87.4675 29.0279C86.8305 29.0279 86.3142 28.5116 86.3142 27.8747C86.3142 27.2378 86.8305 26.7214 87.4675 26.7214C88.1044 26.7214 88.6207 27.2378 88.6207 27.8747Z" fill="#C7C6CA"/>
<path d="M92.2581 26.8122V28.9371C92.1199 28.9956 91.9683 29.0279 91.8088 29.0279C91.1719 29.0279 90.6556 28.5116 90.6556 27.8747C90.6556 27.2378 91.1719 26.7214 91.8088 26.7214C91.9683 26.7214 92.1199 26.7538 92.2581 26.8122Z" fill="#C7C6CA"/>
<path fill-rule="evenodd" clip-rule="evenodd" d="M92.2581 45.6855H0V47.2232H92.2581V45.6855ZM92.2581 68.7501H0V70.2877H92.2581V68.7501Z" fill="#C8C7CB"/>
</g>
<defs>
<linearGradient id="paint0_linear_112_146" x1="46.129" y1="23.1337" x2="46.129" y2="28.2591" gradientUnits="userSpaceOnUse">
<stop offset="0.0416667" stop-color="#9C9A9B"/>
<stop offset="0.447917" stop-color="#D7D7D7"/>
<stop offset="0.875" stop-color="white"/>
</linearGradient>
<linearGradient id="paint1_linear_112_146" x1="46.129" y1="0.0690918" x2="46.129" y2="23.1336" gradientUnits="userSpaceOnUse">
<stop stop-color="#FFDD5F"/>
<stop offset="1" stop-color="#FDCB00"/>
</linearGradient>
<clipPath id="clip0_112_146">
<rect y="0.0690918" width="92.2581" height="92.2581" rx="20.4174" fill="white"/>
</clipPath>
</defs>
</svg>
