<svg width="39" height="39" viewBox="0 0 39 39" fill="none" xmlns="http://www.w3.org/2000/svg">
<path d="M9.75 24.375C9.75 23.4775 10.4775 22.75 11.375 22.75H17.875C18.7725 22.75 19.5 23.4775 19.5 24.375V24.375C19.5 25.2725 18.7725 26 17.875 26H11.375C10.4775 26 9.75 25.2725 9.75 24.375V24.375Z" fill="#2C3137"/>
<path d="M3.25 14.625H35.75V17.875H3.25V14.625Z" fill="#2C3137"/>
<path fill-rule="evenodd" clip-rule="evenodd" d="M12.6079 6.5H26.3921C27.7002 6.49998 28.7798 6.49996 29.6592 6.57182C30.5726 6.64644 31.4123 6.80661 32.2009 7.20846C33.424 7.83164 34.4184 8.82601 35.0415 10.0491C35.4434 10.8377 35.6036 11.6774 35.6782 12.5908C35.75 13.4702 35.75 14.5498 35.75 15.8579V23.1422C35.75 24.4502 35.75 25.5298 35.6782 26.4092C35.6036 27.3226 35.4434 28.1623 35.0415 28.9509C34.4184 30.174 33.424 31.1684 32.2009 31.7915C31.4123 32.1934 30.5726 32.3536 29.6592 32.4282C28.7798 32.5 27.7002 32.5 26.3921 32.5H12.6079C11.2998 32.5 10.2202 32.5 9.34078 32.4282C8.42738 32.3536 7.58773 32.1934 6.79906 31.7915C5.57601 31.1684 4.58164 30.174 3.95846 28.9509C3.55661 28.1623 3.39644 27.3226 3.32182 26.4092C3.24996 25.5298 3.24998 24.4502 3.25 23.1421V15.8579C3.24998 14.5498 3.24996 13.4702 3.32182 12.5908C3.39644 11.6774 3.55661 10.8377 3.95846 10.0491C4.58164 8.82601 5.57601 7.83164 6.79906 7.20846C7.58773 6.80661 8.42738 6.64644 9.34078 6.57182C10.2202 6.49996 11.2998 6.49998 12.6079 6.5ZM9.60544 9.81102C8.89301 9.86923 8.52868 9.97473 8.27453 10.1042C7.66301 10.4158 7.16582 10.913 6.85423 11.5245C6.72473 11.7787 6.61923 12.143 6.56102 12.8554C6.50127 13.5868 6.5 14.5331 6.5 15.925V23.075C6.5 24.4669 6.50127 25.4132 6.56102 26.1446C6.61923 26.857 6.72473 27.2213 6.85423 27.4755C7.16582 28.087 7.66301 28.5842 8.27453 28.8958C8.52868 29.0253 8.89301 29.1308 9.60544 29.189C10.3368 29.2487 11.2831 29.25 12.675 29.25H26.325C27.7169 29.25 28.6632 29.2487 29.3946 29.189C30.107 29.1308 30.4713 29.0253 30.7255 28.8958C31.337 28.5842 31.8342 28.087 32.1458 27.4755C32.2753 27.2213 32.3808 26.857 32.439 26.1446C32.4987 25.4132 32.5 24.4669 32.5 23.075V15.925C32.5 14.5331 32.4987 13.5868 32.439 12.8554C32.3808 12.143 32.2753 11.7787 32.1458 11.5245C31.8342 10.913 31.337 10.4158 30.7255 10.1042C30.4713 9.97473 30.107 9.86923 29.3946 9.81102C28.6632 9.75127 27.7169 9.75 26.325 9.75H12.675C11.2831 9.75 10.3368 9.75127 9.60544 9.81102Z" fill="#2C3137"/>
</svg>
