<svg width="20" height="12" viewBox="0 0 20 12" fill="none" xmlns="http://www.w3.org/2000/svg">
<path d="M1.81738 1.94531H18.1826C18.6396 1.94531 19.0088 1.56738 19.0088 1.11035C19.0088 0.65332 18.6396 0.28418 18.1826 0.28418H1.81738C1.35156 0.28418 0.991211 0.65332 0.991211 1.11035C0.991211 1.56738 1.36035 1.94531 1.81738 1.94531ZM3.63672 6.48926H16.3984C16.8555 6.48926 17.2246 6.11133 17.2246 5.6543C17.2246 5.18848 16.8643 4.81934 16.3984 4.81934H3.63672C3.1709 4.81934 2.81055 5.19727 2.81055 5.6543C2.81055 6.10254 3.17969 6.48926 3.63672 6.48926ZM5.4209 11.0244H14.6143C15.0801 11.0244 15.4404 10.6465 15.4404 10.1895C15.4404 9.73242 15.0801 9.36328 14.6143 9.36328H5.4209C4.95508 9.36328 4.59473 9.73242 4.59473 10.1895C4.59473 10.6465 4.95508 11.0244 5.4209 11.0244Z" fill="white"/>
</svg>
