<svg width="12" height="23" viewBox="0 0 12 23" fill="none" xmlns="http://www.w3.org/2000/svg">
<path d="M5.33203 22.3682C5.73633 22.7197 6.29004 22.7637 6.67676 22.377L9.39258 19.6611C9.77051 19.2832 9.75293 18.6943 9.38379 18.3164L8.0918 17.0244L10.0078 15.1084C10.377 14.7393 10.377 14.1416 9.99902 13.7637L8.25 12.0059C10.6318 10.8193 11.9678 8.8418 11.9678 6.5127C11.9678 3.2168 9.30469 0.553711 6 0.553711C2.68652 0.553711 0.0322266 3.20801 0.0322266 6.5127C0.0322266 8.87695 1.37695 10.9951 3.52148 11.9619V20.2061C3.52148 20.5225 3.61816 20.8828 3.89062 21.1201L5.33203 22.3682ZM6 20.8037L5.05078 19.8545V10.8018C3.04688 10.3623 1.61426 8.60449 1.61426 6.5127C1.61426 4.0957 3.56543 2.14453 6 2.14453C8.43457 2.14453 10.377 4.0957 10.377 6.5127C10.377 8.58691 8.93555 10.3711 6.73828 10.8545V12.7617L8.42578 14.4492L6.62402 16.2158V17.8066L7.81055 18.9756L6 20.8037ZM6 6.56543C6.86133 6.56543 7.56445 5.8623 7.56445 5.00098C7.56445 4.13965 6.86133 3.43652 6 3.43652C5.12988 3.43652 4.43555 4.13086 4.43555 5.00098C4.43555 5.8623 5.13867 6.56543 6 6.56543Z" fill="#747474"/>
</svg>
