<svg width="12" height="23" viewBox="0 0 12 23" fill="none" xmlns="http://www.w3.org/2000/svg">
<path d="M6 0.738281C2.79199 0.738281 0.243164 3.2959 0.243164 6.48633C0.243164 8.85059 1.63184 10.9424 3.8291 11.8213V20.3379C3.8291 20.5928 3.9082 20.8213 4.10156 21.0146L5.63086 22.4912C5.82422 22.6846 6.19336 22.7285 6.43945 22.4824L9.20801 19.7139C9.46289 19.459 9.4541 19.0898 9.20801 18.8438L7.61719 17.2705L9.84961 15.0381C10.0781 14.8008 10.0869 14.4316 9.83203 14.1768L7.66113 11.9971C10.2891 10.8809 11.748 8.86816 11.748 6.48633C11.748 3.30469 9.19043 0.738281 6 0.738281ZM6 6.08203C5.14746 6.08203 4.45312 5.3877 4.45312 4.53516C4.45312 3.67383 5.13867 2.98828 6 2.98828C6.85254 2.98828 7.54688 3.68262 7.54688 4.53516C7.54688 5.3877 6.85254 6.08203 6 6.08203Z" fill="#8A949E"/>
</svg>
