<svg width="229" height="130" viewBox="0 0 229 130" fill="none" xmlns="http://www.w3.org/2000/svg">
<path d="M0 120.126C0 125.568 4.43182 130 9.79665 130H219.103C224.468 130 228.9 125.568 228.9 120.126C228.9 114.683 224.468 110.173 219.103 110.173H202.62V18.5048C202.62 6.3756 196.011 0 183.959 0H44.9402C33.3553 0 26.2799 6.3756 26.2799 18.5048V110.173H9.79665C4.43182 110.173 0 114.683 0 120.126ZM41.5191 110.173V22.4701C41.5191 17.5718 44.0072 15.2392 48.8278 15.2392H180.072C184.97 15.2392 187.38 17.5718 187.38 22.4701V110.173H41.5191ZM101.232 89.9581H127.823C132.099 89.9581 134.276 87.7033 134.276 83.1938V62.7452C134.276 59.2464 132.877 57.1471 130.233 56.2919V51.1603C130.233 40.5861 123.858 33.5108 114.528 33.5108C105.12 33.5108 98.8218 40.5861 98.8218 51.1603V56.3696C96.1782 57.1471 94.7787 59.2464 94.7787 62.7452V83.1938C94.7787 87.7033 96.878 89.9581 101.232 89.9581ZM106.908 56.0586V50.5383C106.908 44.9402 109.862 41.4414 114.528 41.4414C119.115 41.4414 122.069 44.9402 122.069 50.5383V56.0586H106.908Z" fill="#30363D"/>
</svg>
