<svg width="28" height="28" viewBox="0 0 28 28" fill="none" xmlns="http://www.w3.org/2000/svg">
<g filter="url(#filter0_d_441_301)">
<path fill-rule="evenodd" clip-rule="evenodd" d="M9.7587 4H18.2413C19.0463 3.99999 19.7106 3.99998 20.2518 4.04419C20.8139 4.09012 21.3306 4.18868 21.816 4.43597C22.5686 4.81947 23.1805 5.43139 23.564 6.18404C23.8113 6.66937 23.9099 7.18608 23.9558 7.74817C24 8.28936 24 8.95372 24 9.75868V14.2413C24 15.0463 24 15.7106 23.9558 16.2518C23.9099 16.8139 23.8113 17.3306 23.564 17.816C23.1805 18.5686 22.5686 19.1805 21.816 19.564C21.3306 19.8113 20.8139 19.9099 20.2518 19.9558C19.7106 20 19.0463 20 18.2413 20H9.75872C8.95374 20 8.28938 20 7.74817 19.9558C7.18608 19.9099 6.66937 19.8113 6.18404 19.564C5.43139 19.1805 4.81947 18.5686 4.43597 17.816C4.18868 17.3306 4.09012 16.8139 4.04419 16.2518C3.99998 15.7106 3.99999 15.0463 4 14.2413V9.7587C3.99999 8.95373 3.99998 8.28937 4.04419 7.74818C4.09012 7.18608 4.18868 6.66937 4.43597 6.18404C4.81947 5.43139 5.43139 4.81947 6.18404 4.43597C6.66937 4.18868 7.18608 4.09012 7.74817 4.04419C8.28937 3.99998 8.95373 3.99999 9.7587 4ZM7.91104 6.03755C7.47262 6.07337 7.24842 6.1383 7.09202 6.21799C6.7157 6.40973 6.40973 6.7157 6.21799 7.09202C6.1383 7.24842 6.07337 7.47262 6.03755 7.91104C6.00078 8.36113 6 8.94342 6 9.8V14.2C6 15.0566 6.00078 15.6389 6.03755 16.089C6.07337 16.5274 6.1383 16.7516 6.21799 16.908C6.40973 17.2843 6.7157 17.5903 7.09202 17.782C7.24842 17.8617 7.47262 17.9266 7.91104 17.9624C8.36113 17.9992 8.94342 18 9.8 18H18.2C19.0566 18 19.6389 17.9992 20.089 17.9624C20.5274 17.9266 20.7516 17.8617 20.908 17.782C21.2843 17.5903 21.5903 17.2843 21.782 16.908C21.8617 16.7516 21.9266 16.5274 21.9624 16.089C21.9992 15.6389 22 15.0566 22 14.2V9.8C22 8.94342 21.9992 8.36113 21.9624 7.91104C21.9266 7.47262 21.8617 7.24842 21.782 7.09202C21.5903 6.7157 21.2843 6.40973 20.908 6.21799C20.7516 6.1383 20.5274 6.07337 20.089 6.03755C19.6389 6.00078 19.0566 6 18.2 6H9.8C8.94342 6 8.36113 6.00078 7.91104 6.03755Z" fill="#656D78"/>
<path fill-rule="evenodd" clip-rule="evenodd" d="M8.17538 8.43431C8.4878 7.97889 9.11027 7.86296 9.56569 8.17538L13.4343 10.8293C13.7752 11.0631 14.2248 11.0631 14.5657 10.8293L18.4343 8.17538C18.8897 7.86296 19.5122 7.97889 19.8246 8.43431C20.137 8.88974 20.0211 9.5122 19.5657 9.82462L15.6971 12.4785C14.6744 13.18 13.3256 13.18 12.3029 12.4785L8.43431 9.82462C7.97889 9.5122 7.86296 8.88974 8.17538 8.43431Z" fill="#656D78"/>
</g>
<defs>
<filter id="filter0_d_441_301" x="-2" y="0" width="32" height="32" filterUnits="userSpaceOnUse" color-interpolation-filters="sRGB">
<feFlood flood-opacity="0" result="BackgroundImageFix"/>
<feColorMatrix in="SourceAlpha" type="matrix" values="0 0 0 0 0 0 0 0 0 0 0 0 0 0 0 0 0 0 127 0" result="hardAlpha"/>
<feOffset dy="4"/>
<feGaussianBlur stdDeviation="2"/>
<feComposite in2="hardAlpha" operator="out"/>
<feColorMatrix type="matrix" values="0 0 0 0 0 0 0 0 0 0 0 0 0 0 0 0 0 0 0.25 0"/>
<feBlend mode="normal" in2="BackgroundImageFix" result="effect1_dropShadow_441_301"/>
<feBlend mode="normal" in="SourceGraphic" in2="effect1_dropShadow_441_301" result="shape"/>
</filter>
</defs>
</svg>
