<svg width="93" height="93" viewBox="0 0 93 93" fill="none" xmlns="http://www.w3.org/2000/svg">
<g clip-path="url(#clip0_112_364)">
<rect width="92.2581" height="92.2581" transform="translate(0.741943 0.252441)" fill="white"/>
<path fill-rule="evenodd" clip-rule="evenodd" d="M24.3191 23.317C24.3191 26.7138 21.5654 29.4675 18.1685 29.4675C14.7717 29.4675 12.018 26.7138 12.018 23.317C12.018 19.9201 14.7717 17.1664 18.1685 17.1664C21.5654 17.1664 24.3191 19.9201 24.3191 23.317ZM25.8567 23.317C25.8567 27.563 22.4146 31.0051 18.1685 31.0051C13.9225 31.0051 10.4803 27.563 10.4803 23.317C10.4803 19.0709 13.9225 15.6288 18.1685 15.6288C22.4146 15.6288 25.8567 19.0709 25.8567 23.317ZM18.1685 27.9299C20.7161 27.9299 22.7814 25.8646 22.7814 23.317C22.7814 20.7693 20.7161 18.7041 18.1685 18.7041C15.6209 18.7041 13.5556 20.7693 13.5556 23.317C13.5556 25.8646 15.6209 27.9299 18.1685 27.9299Z" fill="url(#paint0_linear_112_364)"/>
<path fill-rule="evenodd" clip-rule="evenodd" d="M24.3191 46.3815C24.3191 49.7784 21.5654 52.5321 18.1685 52.5321C14.7717 52.5321 12.018 49.7784 12.018 46.3815C12.018 42.9847 14.7717 40.231 18.1685 40.231C21.5654 40.231 24.3191 42.9847 24.3191 46.3815ZM25.8567 46.3815C25.8567 50.6276 22.4146 54.0697 18.1685 54.0697C13.9225 54.0697 10.4803 50.6276 10.4803 46.3815C10.4803 42.1355 13.9225 38.6934 18.1685 38.6934C22.4146 38.6934 25.8567 42.1355 25.8567 46.3815ZM18.1685 50.9944C20.7161 50.9944 22.7814 48.9291 22.7814 46.3815C22.7814 43.8338 20.7161 41.7686 18.1685 41.7686C15.6209 41.7686 13.5556 43.8338 13.5556 46.3815C13.5556 48.9291 15.6209 50.9944 18.1685 50.9944Z" fill="url(#paint1_linear_112_364)"/>
<path fill-rule="evenodd" clip-rule="evenodd" d="M24.3191 69.446C24.3191 72.8428 21.5654 75.5965 18.1685 75.5965C14.7717 75.5965 12.018 72.8428 12.018 69.446C12.018 66.0491 14.7717 63.2954 18.1685 63.2954C21.5654 63.2954 24.3191 66.0491 24.3191 69.446ZM25.8567 69.446C25.8567 73.692 22.4146 77.1342 18.1685 77.1342C13.9225 77.1342 10.4803 73.692 10.4803 69.446C10.4803 65.1999 13.9225 61.7578 18.1685 61.7578C22.4146 61.7578 25.8567 65.1999 25.8567 69.446ZM18.1685 74.0589C20.7161 74.0589 22.7814 71.9936 22.7814 69.446C22.7814 66.8984 20.7161 64.8331 18.1685 64.8331C15.6209 64.8331 13.5556 66.8984 13.5556 69.446C13.5556 71.9936 15.6209 74.0589 18.1685 74.0589Z" fill="url(#paint2_linear_112_364)"/>
<path fill-rule="evenodd" clip-rule="evenodd" d="M35.3388 22.2919C34.9142 22.2919 34.5699 22.6361 34.5699 23.0607C34.5699 23.4853 34.9142 23.8295 35.3388 23.8295H81.4678C81.8924 23.8295 82.2366 23.4853 82.2366 23.0607C82.2366 22.6361 81.8924 22.2919 81.4678 22.2919H35.3388ZM34.57 46.1252C34.57 45.7006 34.9142 45.3564 35.3388 45.3564H81.4678C81.8924 45.3564 82.2366 45.7006 82.2366 46.1252C82.2366 46.5498 81.8924 46.894 81.4678 46.894H35.3388C34.9142 46.894 34.57 46.5498 34.57 46.1252ZM34.57 69.1897C34.57 68.7651 34.9142 68.4209 35.3388 68.4209H81.4678C81.8924 68.4209 82.2366 68.7651 82.2366 69.1897C82.2366 69.6143 81.8924 69.9585 81.4678 69.9585H35.3388C34.9142 69.9585 34.57 69.6143 34.57 69.1897Z" fill="#C6C5C9"/>
</g>
<defs>
<linearGradient id="paint0_linear_112_364" x1="18.1685" y1="15.6288" x2="18.1685" y2="31.0051" gradientUnits="userSpaceOnUse">
<stop stop-color="#077CFF"/>
<stop offset="1" stop-color="#047BFE"/>
</linearGradient>
<linearGradient id="paint1_linear_112_364" x1="18.1685" y1="38.6934" x2="18.1685" y2="54.0697" gradientUnits="userSpaceOnUse">
<stop stop-color="#FD4235"/>
<stop offset="1" stop-color="#FF3F33"/>
</linearGradient>
<linearGradient id="paint2_linear_112_364" x1="18.1685" y1="61.7578" x2="18.1685" y2="77.1342" gradientUnits="userSpaceOnUse">
<stop stop-color="#FF9700"/>
<stop offset="1" stop-color="#FE9404"/>
</linearGradient>
<clipPath id="clip0_112_364">
<rect x="0.741943" y="0.252441" width="92.2581" height="92.2581" rx="20.4174" fill="white"/>
</clipPath>
</defs>
</svg>
