<svg width="22" height="21" viewBox="0 0 22 21" fill="none" xmlns="http://www.w3.org/2000/svg">
<path d="M3.48535 20.7002H18.5234C20.4131 20.7002 21.415 19.7158 21.415 17.835V13.625C21.415 13.2998 21.2568 12.9395 20.9932 12.7197C21.2744 12.3066 21.415 11.7705 21.415 11.1377V6.4707C21.415 5.53906 21.4062 4.87109 20.8877 4.42285L17.7324 1.59277C16.748 0.713867 16.0361 0.415039 14.665 0.415039H7.34375C5.96387 0.415039 5.26074 0.713867 4.26758 1.59277L1.12109 4.42285C0.602539 4.87109 0.584961 5.53906 0.584961 6.4707V11.1377C0.584961 11.7705 0.725586 12.3066 1.00684 12.7197C0.743164 12.9395 0.584961 13.2998 0.584961 13.625V17.835C0.584961 19.7246 1.58691 20.7002 3.48535 20.7002ZM11 8.29004C9.82227 8.29004 9.08398 7.2793 9.08398 6.33008V6.29492C9.08398 5.95215 8.87305 5.62695 8.41602 5.62695H2.93164C2.47461 5.62695 2.31641 5.41602 2.69434 5.07324L5.55957 2.49805C6.04297 2.0498 6.37695 1.87402 7.13281 1.87402H14.876C15.6318 1.87402 15.957 2.0498 16.4404 2.49805L19.3145 5.06445C19.7012 5.4248 19.5254 5.62695 19.0771 5.62695H13.5928C13.127 5.62695 12.9248 5.95215 12.9248 6.29492V6.33008C12.9248 7.2793 12.1865 8.29004 11 8.29004ZM3.57324 12.2891C2.75586 12.2891 2.31641 11.8672 2.31641 11.0146V7.17383H7.58105C7.8623 8.73828 9.22461 9.89844 11 9.89844C12.7754 9.89844 14.1377 8.73828 14.4189 7.17383H19.6836V11.0146C19.6836 11.8672 19.2354 12.2891 18.4355 12.2891H3.57324ZM11 15.1631C10.0508 15.1631 9.38281 14.5039 9.16309 13.7568H12.8369C12.6172 14.5039 11.9492 15.1631 11 15.1631ZM3.57324 18.9951C2.75586 18.9951 2.31641 18.5732 2.31641 17.7207V13.8975H7.58105C7.8623 15.4619 9.22461 16.6221 11 16.6221C12.7754 16.6221 14.1377 15.4619 14.4189 13.8975H19.6836V17.7207C19.6836 18.5732 19.2354 18.9951 18.4355 18.9951H3.57324Z" fill="#0176FF"/>
</svg>
